<svg width="24" height="24" viewBox="0 0 24 24" fill="none" xmlns="http://www.w3.org/2000/svg">
<g id="connection">
<path id="Vector 11" d="M7.12842 1.18262L11.5943 5.64851" stroke="#898989" stroke-width="1.5" stroke-linecap="round"/>
<path id="Vector 12" d="M5.14355 3.16797L9.11324 7.13765" stroke="#898989" stroke-width="1.5" stroke-linecap="round"/>
<path id="Vector 13" d="M1.17383 7.13672L5.63972 11.6026" stroke="#898989" stroke-width="1.5" stroke-linecap="round"/>
<path id="Vector 14" d="M3.15869 5.15186L7.12838 9.12154" stroke="#898989" stroke-width="1.5" stroke-linecap="round"/>
<path id="Vector 15" d="M1.17383 7.13672L7.12835 1.18219" stroke="#898989" stroke-width="1.5" stroke-linecap="round"/>
<path id="Vector" d="M17.9699 16.9577C17.8375 16.8261 17.7964 16.754 17.9588 16.6071C18.2837 16.3134 18.5798 15.9877 18.8968 15.6847C18.9972 15.5891 19.006 15.5147 18.9496 15.3904C18.0523 13.4148 17.1601 11.4364 16.2669 9.4584C16.1998 9.31012 16.117 9.17201 16.0017 9.05653C14.4015 7.45735 12.8003 5.85909 11.1987 4.26083C11.1663 4.22849 11.132 4.19847 11.0904 4.15967C11.0409 4.20447 10.9946 4.24281 10.9525 4.28439C8.71361 6.51871 6.47613 8.75443 4.23355 10.9851C4.11508 11.1028 4.12989 11.1597 4.24003 11.2687C5.79077 12.8092 7.33641 14.3539 8.88298 15.8985C8.99821 16.0136 9.12547 16.1096 9.27402 16.178C11.3111 17.112 13.3487 18.0456 15.3844 18.9833C15.4945 19.0341 15.5589 19.0175 15.6408 18.9329C15.9518 18.6128 16.278 18.3075 16.583 17.9814C16.7121 17.8432 16.7797 17.84 16.9176 17.9777C18.9274 19.9893 20.9395 21.9987 22.9516 24.0081L23.9993 22.9697C21.9904 20.9645 19.982 18.9583 17.9694 16.9568L17.9699 16.9577ZM9.3999 14.3294C8.36746 13.2947 7.33317 12.2618 6.29611 11.2317C6.21281 11.149 6.20818 11.1047 6.29518 11.0183C7.86073 9.46117 9.4235 7.90172 10.983 6.33856C11.0728 6.24895 11.1168 6.26327 11.1968 6.34365C12.2288 7.37882 13.2645 8.41029 14.2988 9.44316C14.3312 9.47549 14.3612 9.51014 14.3969 9.54894C14.3622 9.58682 14.333 9.62192 14.3011 9.65379C12.7388 11.2137 11.1751 12.7727 9.61555 14.3354C9.52531 14.4259 9.47995 14.4088 9.40036 14.3289L9.3999 14.3294ZM12.5236 16.0514C12.0168 15.8126 11.5092 15.5757 10.9955 15.3535C10.8201 15.2777 10.7942 15.2352 10.9414 15.0897C12.2256 13.818 13.5033 12.5394 14.7819 11.2618C14.9332 11.1107 15.0785 10.9532 15.2442 10.78C15.5283 11.41 15.7935 12.005 16.0665 12.5958C16.1105 12.6905 16.0721 12.7344 16.0147 12.7916C14.936 13.8665 13.8568 14.941 12.7818 16.02C12.6925 16.1096 12.6263 16.0999 12.5236 16.0514ZM17.1545 15.3355C16.5367 15.9466 15.9231 16.5623 15.3067 17.1753C15.2701 17.2113 15.2414 17.2631 15.1799 17.2654C15.1512 17.2534 15.1229 17.2418 15.0947 17.2289C14.8157 17.1014 14.5385 16.9684 14.2562 16.8478C14.1266 16.7924 14.1368 16.7499 14.2275 16.6593C15.0359 15.8574 15.8416 15.0532 16.645 14.2462C16.7375 14.1534 16.7783 14.1589 16.8296 14.2809C16.9458 14.5562 17.0684 14.8292 17.1989 15.098C17.2475 15.1983 17.2309 15.2592 17.154 15.335L17.1545 15.3355Z" fill="#898989"/>
</g>
</svg>
