<svg width="20" height="22" viewBox="0 0 20 22" fill="none" xmlns="http://www.w3.org/2000/svg">
<path id="Icon" d="M11.939 1H6.18341C6.00393 1 5.91419 1 5.83496 1.02733C5.7649 1.05149 5.70108 1.09093 5.64814 1.14279C5.58826 1.20143 5.54813 1.2817 5.46786 1.44223L1.26786 9.84223C1.07618 10.2256 0.980344 10.4173 1.00337 10.5731C1.02347 10.7091 1.09872 10.8309 1.21143 10.9097C1.34049 11 1.5548 11 1.98341 11H8.18898L5.18898 21L17.3821 8.35531C17.7934 7.9287 17.9991 7.7154 18.0112 7.53288C18.0216 7.37446 17.9562 7.22049 17.8349 7.11803C17.6952 7 17.3988 7 16.8062 7H9.68898L11.939 1Z" stroke="#898989" stroke-width="2" stroke-linecap="round" stroke-linejoin="round"/>
</svg>
