<svg width="28" height="27" viewBox="0 0 28 27" fill="none" xmlns="http://www.w3.org/2000/svg">
<g id="router">
<path id="Vector 6" d="M7.76919 4.71436C6.9438 5.53975 5.54062 8.05721 6.5311 11.5239" stroke="#ED3034" stroke-width="2" stroke-linecap="round"/>
<path id="Vector 8" d="M19.8094 4.71436C20.6348 5.53975 22.038 8.05721 21.0475 11.5239" stroke="#ED3034" stroke-width="2" stroke-linecap="round"/>
<path id="Vector 7" d="M4.43983 1C0.747146 4.71429 0.747094 7.80952 1.96399 12.1429" stroke="#ED3034" stroke-width="2" stroke-linecap="round"/>
<path id="Vector 9" d="M23.1393 1C26.832 4.71429 26.832 7.80952 25.6151 12.1429" stroke="#ED3034" stroke-width="2" stroke-linecap="round"/>
<path id="Vector 5" d="M14.6191 10.2856C14.6191 9.73336 14.1714 9.28564 13.6191 9.28564C13.0669 9.28564 12.6191 9.73336 12.6191 10.2856H14.6191ZM14.6191 17.0952V10.2856H12.6191V17.0952H14.6191Z" fill="black"/>
<path id="Vector 10" d="M4.3335 21.4287H10.524" stroke="black" stroke-width="2" stroke-linecap="round"/>
<rect id="Rectangle 119" x="1" y="16.8569" width="25.2381" height="9.14286" rx="2" stroke="black" stroke-width="2"/>
</g>
</svg>
