<svg width="28" height="28" viewBox="0 0 28 28" fill="none" xmlns="http://www.w3.org/2000/svg">
<g id="Gift Icon">
<path id="Vector" d="M24.4001 14V27H3.6001V14" stroke="black" stroke-width="2" stroke-linecap="round" stroke-linejoin="round"/>
<path id="Vector_2" d="M27 7.5H1V14H27V7.5Z" stroke="black" stroke-width="2" stroke-linecap="round" stroke-linejoin="round"/>
<path id="Vector_3" d="M14 27V7.5" stroke="#ED3034" stroke-width="2" stroke-linecap="round" stroke-linejoin="round"/>
<path id="Vector_4" d="M13.9999 7.5H8.1499C7.28795 7.5 6.4613 7.15759 5.85181 6.5481C5.24231 5.9386 4.8999 5.11195 4.8999 4.25C4.8999 3.38805 5.24231 2.5614 5.85181 1.9519C6.4613 1.34241 7.28795 1 8.1499 1C12.6999 1 13.9999 7.5 13.9999 7.5Z" stroke="#ED3034" stroke-width="2" stroke-linecap="round" stroke-linejoin="round"/>
<path id="Vector_5" d="M14 7.5H19.85C20.712 7.5 21.5386 7.15759 22.1481 6.5481C22.7576 5.9386 23.1 5.11195 23.1 4.25C23.1 3.38805 22.7576 2.5614 22.1481 1.9519C21.5386 1.34241 20.712 1 19.85 1C15.3 1 14 7.5 14 7.5Z" stroke="#ED3034" stroke-width="2" stroke-linecap="round" stroke-linejoin="round"/>
</g>
</svg>
