<svg width="42" height="34" viewBox="0 0 42 34" fill="none" xmlns="http://www.w3.org/2000/svg">
<g id="Router">
<path id="Vector" d="M0 21.7404C0.0911597 21.551 0.0981404 21.3399 0.15686 21.1415C0.647973 19.4853 2.16853 18.3311 3.90262 18.309C4.27835 18.3041 4.6549 18.2992 5.03021 18.3119C5.20103 18.3176 5.25565 18.2857 5.25524 18.0971C5.24825 14.2218 5.2499 10.3464 5.2499 6.4715C5.2499 4.75518 5.24702 3.03886 5.25154 1.32253C5.254 0.588133 5.82026 0.0124788 6.53476 0.000204723C7.28292 -0.0124785 7.87382 0.56563 7.87546 1.32499C7.87875 3.23892 7.87669 5.15245 7.87669 7.06639C7.87669 10.7441 7.87793 14.4218 7.87259 18.0996C7.87259 18.264 7.90338 18.3119 8.07913 18.3119C16.6917 18.307 25.3046 18.3066 33.9172 18.3131C34.1118 18.3131 34.1299 18.2501 34.1295 18.0861C34.1254 12.5218 34.1258 6.95756 34.1262 1.39331C34.1262 0.613908 34.6559 0.0276168 35.3807 0.00102299C36.135 -0.0267982 36.7448 0.553765 36.7472 1.32008C36.7526 2.91366 36.7493 4.50765 36.7493 6.10124C36.7493 10.0989 36.7509 14.097 36.7444 18.0946C36.7444 18.2788 36.7936 18.3115 36.9673 18.3127C37.5948 18.3164 38.223 18.2702 38.848 18.3864C40.4191 18.6777 41.7811 20.1211 41.9618 21.6979C41.9881 21.9287 42 22.159 42 22.3906C41.9992 24.0525 42 25.714 41.9996 27.3759C41.9988 29.0509 41.0666 30.4464 39.5116 31.0937C39.4085 31.1367 39.3691 31.1829 39.3712 31.2983C39.379 31.7475 39.3765 32.1971 39.374 32.6468C39.3699 33.418 38.8012 34.0018 38.0592 34.0002C37.3159 33.9986 36.7538 33.416 36.7501 32.6427C36.7485 32.2884 36.7415 31.9341 36.7534 31.5802C36.7587 31.4235 36.7185 31.3789 36.5555 31.3797C34.4912 31.3858 32.427 31.3838 30.3624 31.3838C22.0639 31.3838 13.7655 31.3846 5.46753 31.3797C5.28973 31.3797 5.23799 31.4161 5.2462 31.5986C5.26263 31.9656 5.25524 32.3338 5.24949 32.7016C5.2384 33.4278 4.66229 33.9982 3.94369 34.0002C3.2181 34.0023 2.63542 33.4262 2.62721 32.6906C2.62187 32.2274 2.62392 31.7643 2.62803 31.3011C2.62885 31.2046 2.6153 31.1444 2.511 31.1007C1.17153 30.5406 0.356837 29.5472 0.0566669 28.132C0.0468118 28.0849 0.0718601 28.0178 0.000821259 27.9933V21.7409L0 21.7404ZM21.023 20.923C15.3707 20.923 9.71837 20.923 4.06646 20.923C3.1368 20.923 2.62598 21.4352 2.62598 22.366C2.62598 24.041 2.62474 25.7164 2.62639 27.3914C2.62721 28.2359 3.1639 28.7678 4.01021 28.7678C15.3284 28.7678 26.6466 28.7678 37.9643 28.7678C38.8423 28.7678 39.3736 28.2449 39.374 27.3763C39.3753 25.7013 39.3753 24.0259 39.374 22.3509C39.3732 21.4336 38.8599 20.9234 37.9389 20.9234C32.3001 20.9234 26.6618 20.9234 21.023 20.9234V20.923Z" fill="white"/>
<path id="Vector_2" d="M17.0624 24.8397C17.0645 25.5635 16.4773 26.1526 15.7517 26.1539C15.0281 26.1551 14.4368 25.5643 14.4385 24.8422C14.4401 24.1278 15.0244 23.5423 15.7389 23.5391C16.4678 23.5358 17.0603 24.118 17.0628 24.8397H17.0624Z" fill="white"/>
<path id="Vector_3" d="M22.3118 24.8454C22.3118 25.5684 21.7218 26.1555 20.9954 26.1534C20.2718 26.1514 19.6846 25.5602 19.6875 24.8364C19.6904 24.1241 20.2796 23.5391 20.9937 23.5391C21.7226 23.5391 22.311 24.1225 22.3114 24.8454H22.3118Z" fill="white"/>
<path id="Vector_4" d="M26.2652 23.5391C26.99 23.5465 27.5698 24.1397 27.5624 24.8664C27.555 25.5848 26.9518 26.1654 26.225 26.1535C25.5117 26.1421 24.9344 25.5509 24.9385 24.8361C24.9426 24.1144 25.5384 23.5318 26.2652 23.5391Z" fill="white"/>
</g>
</svg>
