<svg width="22" height="22" viewBox="0 0 22 22" fill="none" xmlns="http://www.w3.org/2000/svg">
<path id="Icon (Stroke)" fill-rule="evenodd" clip-rule="evenodd" d="M11 2C6.02944 2 2 6.02944 2 11C2 15.9706 6.02944 20 11 20C15.9706 20 20 15.9706 20 11C20 6.02944 15.9706 2 11 2ZM0 11C0 4.92487 4.92487 0 11 0C17.0751 0 22 4.92487 22 11C22 17.0751 17.0751 22 11 22C4.92487 22 0 17.0751 0 11ZM10.2451 6.43304C10.2546 6.43912 10.264 6.44517 10.2734 6.45121L14.994 9.48588C15.0026 9.49142 15.0112 9.49699 15.02 9.50259C15.171 9.59964 15.3361 9.7057 15.4676 9.80826C15.6071 9.91704 15.8273 10.1089 15.9571 10.4162C16.1148 10.7894 16.1148 11.2106 15.9571 11.5838C15.8273 11.8911 15.6071 12.083 15.4676 12.1917C15.3361 12.2943 15.171 12.4004 15.02 12.4974C15.0112 12.503 15.0026 12.5086 14.994 12.5141L10.2734 15.5488C10.264 15.5548 10.2545 15.5609 10.2451 15.567C10.0694 15.68 9.88461 15.7988 9.72188 15.8835C9.55818 15.9687 9.26111 16.1066 8.89314 16.0804C8.45914 16.0494 8.05999 15.8314 7.79923 15.4831C7.57813 15.1878 7.5335 14.8633 7.51664 14.6796C7.49989 14.4969 7.49995 14.2772 7.49999 14.0683C7.5 14.057 7.5 14.0458 7.5 14.0347V7.96533C7.5 7.95417 7.5 7.94296 7.49999 7.93173C7.49995 7.72279 7.49989 7.50311 7.51664 7.32042C7.5335 7.13665 7.57813 6.81219 7.79923 6.51687C8.05999 6.16856 8.45914 5.95064 8.89314 5.91964C9.26111 5.89336 9.55818 6.03127 9.72188 6.11647C9.88461 6.20117 10.0694 6.32001 10.2451 6.43304ZM9.5 8.33167V13.6683L13.6507 11L9.5 8.33167Z" fill="#898989"/>
</svg>
