<svg width="34" height="26" viewBox="0 0 34 26" fill="none" xmlns="http://www.w3.org/2000/svg">
<g id="Speed">
<path id="Vector" d="M4.62341 6.13623H16.2951V7.98138H4.62341V6.13623Z" fill="black"/>
<path id="Vector_2" d="M0 10.731H11.6717V12.5761H0V10.731Z" fill="black"/>
<path id="Vector_3" d="M1.64075 15.3252H13.3124V17.1703H1.64075V15.3252Z" fill="black"/>
<path id="Vector_4" d="M27.8511 9.25119C27.9667 9.25119 28.0537 9.25119 28.1411 9.25119C29.185 9.25119 30.2286 9.24545 31.2725 9.25296C32.2163 9.25958 32.9393 9.67496 33.3547 10.5212C33.7732 11.374 33.6725 12.214 33.0832 12.9622C30.391 16.3793 27.6904 19.7893 24.9929 23.2019C24.4278 23.9166 23.8619 24.6308 23.2974 25.3459C22.9791 25.7489 22.5672 25.9833 22.0521 25.9992C21.0042 26.031 20.2171 25.0987 20.4369 24.0636C20.8055 22.3266 21.1966 20.5949 21.578 18.8605C21.729 18.1737 21.8799 17.4868 22.0375 16.7695C21.9373 16.7633 21.8539 16.7541 21.7705 16.7541C20.7044 16.7527 19.6388 16.7629 18.5728 16.7496C17.43 16.7355 16.5476 15.9983 16.337 14.8798C16.2094 14.2013 16.3789 13.5829 16.808 13.0399C18.225 11.2469 19.6424 9.45425 21.0598 7.66119C22.8873 5.34946 24.7148 3.03817 26.5422 0.726437C27.0388 0.0982925 27.6957 -0.136103 28.364 0.0766628C29.1661 0.331805 29.634 1.11136 29.4552 1.94565C29.0831 3.68176 28.6946 5.41435 28.3132 7.14825C28.1618 7.83555 28.0113 8.52285 27.8515 9.25075L27.8511 9.25119ZM22.5218 23.2443C22.5324 23.2505 22.543 23.2571 22.5536 23.2633C22.6034 23.2046 22.6551 23.1472 22.7028 23.0871C25.2829 19.8246 27.8625 16.5616 30.4422 13.299C30.8298 12.8091 31.2165 12.3186 31.6045 11.8291C31.717 11.687 31.7744 11.5351 31.6928 11.3599C31.608 11.178 31.4522 11.1131 31.2611 11.1131C31.1803 11.1131 31.0995 11.1131 31.0183 11.1131C29.607 11.1131 28.1954 11.1153 26.7841 11.1122C26.0505 11.1105 25.6395 10.6059 25.7954 9.8939C26.1357 8.33833 26.4827 6.78452 26.8261 5.22983C27.0079 4.40702 27.1881 3.58421 27.3686 2.7614C27.2702 2.8179 27.207 2.89426 27.1457 2.97195C25.0856 5.57767 23.0254 8.18295 20.9658 10.7887C20.0816 11.9072 19.1987 13.0262 18.3124 14.143C18.1733 14.3183 18.0939 14.4949 18.2294 14.7041C18.3327 14.8634 18.4925 14.897 18.6712 14.8965C20.1487 14.8943 21.6266 14.8948 23.104 14.8957C23.8359 14.8957 24.2499 15.4002 24.0946 16.1113C23.7683 17.602 23.436 19.0918 23.1071 20.5821C22.9111 21.4693 22.7169 22.357 22.5218 23.2447V23.2443Z" fill="#ED3034"/>
</g>
</svg>
