<svg width="30" height="23" viewBox="0 0 30 23" fill="none" xmlns="http://www.w3.org/2000/svg">
<g id="Speed">
<path id="Vector" d="M4.08984 5.42822H14.4148V7.06047H4.08984V5.42822Z" fill="white"/>
<path id="Vector_2" d="M0 9.49268H10.3249V11.1249H0V9.49268Z" fill="white"/>
<path id="Vector_3" d="M1.45117 13.5566H11.7761V15.1889H1.45117V13.5566Z" fill="white"/>
<path id="Vector_4" d="M24.6372 8.18375C24.7396 8.18375 24.8165 8.18375 24.8938 8.18375C25.8173 8.18375 26.7404 8.17867 27.6639 8.18531C28.4988 8.19117 29.1384 8.55862 29.5059 9.30719C29.876 10.0616 29.787 10.8047 29.2657 11.4666C26.8841 14.4894 24.4951 17.5059 22.1088 20.5248C21.609 21.157 21.1084 21.7888 20.609 22.4214C20.3274 22.7779 19.9631 22.9852 19.5074 22.9993C18.5804 23.0274 17.8841 22.2027 18.0786 21.287C18.4046 19.7504 18.7506 18.2185 19.088 16.6843C19.2215 16.0767 19.3551 15.4691 19.4945 14.8346C19.4059 14.8291 19.3321 14.8209 19.2583 14.8209C18.3152 14.8197 17.3726 14.8287 16.4295 14.817C15.4186 14.8045 14.638 14.1524 14.4517 13.1629C14.3389 12.5627 14.4888 12.0156 14.8684 11.5353C16.1218 9.94915 17.3757 8.36337 18.6296 6.7772C20.2462 4.73221 21.8628 2.68761 23.4794 0.642617C23.9187 0.0869511 24.4998 -0.120399 25.091 0.0678171C25.8005 0.29352 26.2144 0.983124 26.0563 1.72115C25.7271 3.25694 25.3835 4.78961 25.0461 6.32346C24.9121 6.93145 24.779 7.53944 24.6376 8.18336L24.6372 8.18375ZM19.9229 20.5623C19.9322 20.5677 19.9416 20.5736 19.951 20.5791C19.9951 20.5271 20.0408 20.4764 20.083 20.4232C22.3654 17.5371 24.6474 14.6506 26.9294 11.7645C27.2723 11.3311 27.6143 10.8973 27.9576 10.4642C28.0571 10.3385 28.1079 10.2041 28.0357 10.0491C27.9607 9.88823 27.8229 9.83083 27.6538 9.83083C27.5823 9.83083 27.5109 9.83083 27.439 9.83083C26.1906 9.83083 24.9418 9.83278 23.6934 9.83005C23.0444 9.82849 22.6809 9.38216 22.8187 8.7523C23.1198 7.37621 23.4267 6.00169 23.7305 4.62639C23.8914 3.89852 24.0507 3.17065 24.2104 2.44277C24.1234 2.49276 24.0675 2.56031 24.0132 2.62904C22.1908 4.93409 20.3684 7.23876 18.5464 9.54382C17.7642 10.5333 16.9833 11.5232 16.1992 12.5112C16.0762 12.6662 16.0059 12.8224 16.1257 13.0075C16.2171 13.1484 16.3585 13.1781 16.5166 13.1777C17.8236 13.1758 19.131 13.1762 20.4379 13.1769C21.0854 13.1769 21.4516 13.6233 21.3142 14.2523C21.0256 15.571 20.7316 16.8889 20.4407 18.2072C20.2673 18.9921 20.0955 19.7774 19.9229 20.5626V20.5623Z" fill="white"/>
</g>
</svg>
